# xmcd
#
# Track frame offsets:
#	150
#	18241
#	32506
#	49692
#	63721
#	80706
#	96637
#	113430
#	127135
#	142432
#	160871
#	176966
#	189719
#	200840
#	213735
#	227452
#	245421
#	261008
#	281019
#	293946
#	311815
#
# Disc length: 4319 seconds
#
# Revision: 1
# Processed by: cddbd v1.4PL0 Copyright (c) Steve Scherf et al.
# Submitted via: audiograbber 1.82.00
#
DISCID=5010dd15
DTITLE=Various Artist - Planet DJ Country #4
DYEAR=1900
DGENRE=Country
TTITLE0=John Michael Montgomery - I love the Way you Love me (Slow)
TTITLE1=Eddie rabbit - Drivin My Life Away   (2 Step)
TTITLE2=Collin Ray - On The Verge  (2 Step)
TTITLE3=Dixie Chicks - I Can Love You better  (Double two)
TTITLE4=Tim MCGraw - It's Your Love   (ballad)
TTITLE5=Tim McGraw - Just To See You Smile  (2 step)
TTITLE6=Chelly White - Shut up and drive  (double two)
TTITLE7=Waylon Jennings - Good Hearted woman  (party)
TTITLE8=Shenandoah - Next 2 You Next2 Me  (2step)
TTITLE9=Steve Earle - CVopperhead Road  (Theunderfoot)
TTITLE10=Kenny Rogers - The Gambler   (Party)
TTITLE11=Belamy Brothers - Let Your Love Flow  (double two)
TTITLE12=Conway Twitty - Hello Darlin  (Ballad)
TTITLE13=Cnway twitty - Tight Fittin Jeans  (2 step)
TTITLE14=Travis Tritt - T-R-O-U-B-L-E  (slappin' leather)
TTITLE15=Alan Jackson - Chattahoochee  (2 step)
TTITLE16=Juice Newton - Queen Of Hearts  (East Coast)
TTITLE17=John Michael Montgomery - I Swear  (Slow)
TTITLE18=John Michael Montgomery - Be My Baby Tonight
TTITLE19=Tractors - Baby Likes to Rocket  (East Coast)
TTITLE20=Patsy Cline - Crazy  (ballad)
EXTD=
EXTT0=
EXTT1=
EXTT2=
EXTT3=
EXTT4=
EXTT5=
EXTT6=
EXTT7=
EXTT8=
EXTT9=
EXTT10=
EXTT11=
EXTT12=
EXTT13=
EXTT14=
EXTT15=
EXTT16=
EXTT17=
EXTT18=
EXTT19=
EXTT20=
PLAYORDER=
